<?xml version="1.0" encoding="UTF-8" standalone="no"?>
<svg width="29px" height="54px" viewBox="0 0 29 54" version="1.1" xmlns="http://www.w3.org/2000/svg" xmlns:xlink="http://www.w3.org/1999/xlink">
    <!-- Generator: sketchtool 41.2 (35397) - http://www.bohemiancoding.com/sketch -->
    <title>9A81C935-A2CE-4D72-B015-F7281FCABCBB</title>
    <desc>Created with sketchtool.</desc>
    <defs></defs>
    <g id="Page-1" stroke="none" stroke-width="1" fill="none" fill-rule="evenodd">
        <g id="1-Home-English" transform="translate(-41.000000, -370.000000)" fill="#FFFFFF">
            <g id="Group-Copy" transform="translate(55.500000, 397.000000) scale(-1, 1) translate(-55.500000, -397.000000) translate(41.000000, 370.000000)">
                <path d="M27.8442029,28.1031128 C27.5710145,28.1031128 27.2873188,27.9980545 27.0771739,27.7879377 L0.388768116,1.99610895 C-0.0525362319,1.57587549 -0.0630434783,0.871984436 0.357246377,0.4307393 C0.777536232,-0.0105058366 1.48152174,-0.0210116732 1.92282609,0.39922179 L28.6112319,26.1910506 C29.0525362,26.611284 29.0630435,27.3151751 28.6427536,27.7564202 C28.4221014,27.9980545 28.1384058,28.1031128 27.8442029,28.1031128 Z" id="Shape"></path>
                <path d="M1.1557971,53.8949416 C0.861594203,53.8949416 0.577898551,53.7793774 0.357246377,53.5587549 C-0.0630434783,53.1175097 -0.0525362319,52.4136187 0.388768116,51.9933852 L27.0771739,26.2015564 C27.5184783,25.781323 28.2224638,25.7918288 28.6427536,26.2330739 C29.0630435,26.6743191 29.0525362,27.3782101 28.6112319,27.7984436 L1.92282609,53.5797665 C1.71268116,53.7898833 1.42898551,53.8949416 1.1557971,53.8949416 Z" id="Shape"></path>
            </g>
        </g>
    </g>
</svg>