<?xml version="1.0" encoding="UTF-8" standalone="no"?>
<svg width="37px" height="20px" viewBox="0 0 37 20" version="1.1" xmlns="http://www.w3.org/2000/svg" xmlns:xlink="http://www.w3.org/1999/xlink">
    <!-- Generator: sketchtool 41.2 (35397) - http://www.bohemiancoding.com/sketch -->
    <title>B3BE8B15-38F8-4B2A-BE92-52BF7F1AE149</title>
    <desc>Created with sketchtool.</desc>
    <defs></defs>
    <g id="Page-1" stroke="none" stroke-width="1" fill="none" fill-rule="evenodd">
        <g id="1-Home-English" transform="translate(-1022.000000, -2694.000000)" fill="#FFFFFF">
            <g id="Group-27" transform="translate(0.000000, 2655.000000)">
                <g id="Group-30" transform="translate(921.000000, 39.000000)">
                    <g id="1492300244_Envelope" transform="translate(101.000000, 0.000000)">
                        <g id="Layer_1">
                            <path d="M35.3287982,0 L0.861678005,0 C0.373393802,0 0,0.371428571 0,0.857142857 L0,19.0857143 C0,19.6 0.402116402,20 0.919123205,20 L35.271353,20 C35.7883598,20 36.1904762,19.6 36.1904762,19.0857143 L36.1904762,0.857142857 C36.1904762,0.371428571 35.8170824,0 35.3287982,0 Z M35.5873016,19.2285714 L22.4323507,12.0285714 L35.6160242,0.914285714 L35.6160242,19.0857143 C35.6160242,19.1428571 35.6160242,19.1714286 35.5873016,19.2285714 Z M0.574452003,19.0857143 L0.574452003,0.914285714 L13.7581255,12.0285714 L0.603174603,19.2 C0.574452003,19.1714286 0.574452003,19.1142857 0.574452003,19.0857143 Z M18.2675737,14.7714286 C18.1814059,14.8571429 18.0090703,14.8571429 17.8941799,14.7714286 L1.06273621,0.571428571 L35.12774,0.571428571 L18.2675737,14.7714286 Z M14.2464097,12.4285714 L17.5495087,15.2285714 C17.7218443,15.3428571 17.9229025,15.4285714 18.0952381,15.4285714 C18.2962963,15.4285714 18.4973545,15.3714286 18.6409675,15.2285714 L21.9440665,12.4571429 L34.7830688,19.4285714 L1.37868481,19.4285714 L14.2464097,12.4285714 Z" id="Shape"></path>
                        </g>
                    </g>
                </g>
            </g>
        </g>
    </g>
</svg>