<?xml version="1.0" encoding="UTF-8" standalone="no"?>
<svg width="32px" height="22px" viewBox="0 0 32 22" version="1.1" xmlns="http://www.w3.org/2000/svg" xmlns:xlink="http://www.w3.org/1999/xlink">
    <!-- Generator: sketchtool 41.2 (35397) - http://www.bohemiancoding.com/sketch -->
    <title>FED64643-C491-48FE-83A1-CE29853A9C0E</title>
    <desc>Created with sketchtool.</desc>
    <defs></defs>
    <g id="Page-1" stroke="none" stroke-width="1" fill="none" fill-rule="evenodd">
        <g id="1-Home-English" transform="translate(-649.000000, -2698.000000)">
            <g id="Group-27" transform="translate(0.000000, 2655.000000)">
                <g id="Group-23" transform="translate(650.000000, 39.000000)">
                    <path d="M12.44516,18.8575193 C12.36924,18.0636066 12.39836,17.5095422 12.39836,16.7840873 C12.77796,16.5954591 13.45812,15.3927701 13.57304,14.3767391 C13.87152,14.3535916 14.34212,14.0777906 14.47992,12.9888695 C14.55428,12.40427 14.25892,12.0752789 14.079,11.9718535 C14.56468,10.5884164 15.57348,6.30857692 12.21324,5.86631042 C11.86744,5.29106848 10.98188,5 9.83112,5 C5.22704,5.08027777 4.67168,8.29286611 5.681,11.9718535 C5.5016,12.0752789 5.20624,12.40427 5.28008,12.9888695 C5.4184,14.0777906 5.88848,14.3535916 6.18696,14.3767391 C6.30136,15.3922776 7.00856,16.5954591 7.3892,16.7840873 C7.3892,17.5095422 7.4178,18.0636066 7.34188,18.8575193 C6.43084,21.1772021 0.28392,20.5261149 0,25 L19.76,25 C19.4766,20.5261149 13.3562,21.1772021 12.44516,18.8575193 Z" id="Shape-Copy" stroke="#FFFFFF"></path>
                    <text id="+" font-family="SimplerPro-Regular, SimplerPro" font-size="20" font-weight="normal" fill="#FFFFFF">
                        <tspan x="18" y="19">+</tspan>
                    </text>
                </g>
            </g>
        </g>
    </g>
</svg>